<?xml version="1.0" encoding="UTF-8"?>
<svg version="1.1" xmlns="http://www.w3.org/2000/svg" width="1550" height="1550">
<path d="M0 0 C21.79696619 -0.86754094 40.55969856 8.97167389 56.60546875 23.03125 C61.899953 28.00299356 66.45466617 33.38883959 70.85546875 39.15625 C71.52191406 40.01863281 72.18835938 40.88101563 72.875 41.76953125 C78.46395006 49.21044109 83.27154905 57.07177905 87.85546875 65.15625 C88.24992188 65.85186035 88.644375 66.5474707 89.05078125 67.26416016 C106.4975919 98.40812416 131.85546875 147.87594866 131.85546875 184.15625 C132.52739258 184.24914307 133.19931641 184.34203613 133.89160156 184.43774414 C142.99271486 185.81418469 151.76039034 188.10975882 160.60546875 190.59375 C161.3859256 190.81178284 162.16638245 191.02981567 162.9704895 191.25445557 C189.66844664 198.74423938 215.41658406 208.14388047 240.85546875 219.15625 C241.80905273 219.56617188 242.76263672 219.97609375 243.74511719 220.3984375 C256.1071382 225.73546359 268.03848049 231.70890121 279.85546875 238.15625 C280.90750488 238.72682129 281.95954102 239.29739258 283.04345703 239.88525391 C296.3247537 247.10314319 309.45354373 254.43724277 321.99072266 262.90185547 C323.84578465 264.14973561 325.71334518 265.37627227 327.5859375 266.59765625 C342.54116392 276.38688927 356.93551604 286.94786168 370.85546875 298.15625 C371.77328125 298.89101563 372.69109375 299.62578125 373.63671875 300.3828125 C378.93774053 304.67040365 384.13247307 309.0764013 389.29296875 313.53125 C389.86523193 314.02415527 390.43749512 314.51706055 391.02709961 315.02490234 C401.77316446 324.35493454 412.0245546 334.13877304 422.08374023 344.19921875 C424.04587283 346.15915082 426.01590932 348.11090296 427.98632812 350.0625 C434.33480197 356.38343209 440.41627247 362.71426948 445.94360352 369.77685547 C448.04982976 372.39814023 450.29872864 374.83557927 452.60546875 377.28125 C458.66171812 383.86412975 463.96151973 390.99021823 469.32861328 398.13720703 C470.67408721 399.91639945 472.03607752 401.67954623 473.4140625 403.43359375 C523.68904567 467.5775378 557.44805524 543.33382279 576.85546875 622.15625 C577.3672476 624.19822835 577.88023368 626.23990457 578.39453125 628.28125 C579.5579808 632.90385971 580.71053307 637.52902148 581.85546875 642.15625 C583.20850098 642.51638184 583.20850098 642.51638184 584.58886719 642.88378906 C627.35439471 654.31394452 669.42568667 667.78678464 708.85546875 688.15625 C709.81710937 688.64609375 710.77875 689.1359375 711.76953125 689.640625 C723.57476275 695.83924213 734.7344582 703.48580774 744.85546875 712.15625 C745.77070312 712.93742188 746.6859375 713.71859375 747.62890625 714.5234375 C763.52450061 728.50285062 775.49971868 746.73815494 777.85546875 768.15625 C779.03476485 791.742172 771.16529406 810.50810519 755.734375 828.0234375 C743.58524511 841.44261088 728.51295351 851.31552698 712.85546875 860.15625 C712.16420898 860.54780273 711.47294922 860.93935547 710.76074219 861.34277344 C684.16046325 876.24613513 655.20918541 886.39027665 626.22689819 895.58215332 C624.89759278 896.00602576 623.56979279 896.43464909 622.24356079 896.86804199 C614.40510954 899.42735005 606.73095127 901.44657791 598.5859375 902.765625 C583.61140573 904.77861201 583.61140573 904.77861201 571.66357422 912.91748047 C568.49665959 919.34739448 567.12075814 926.17224183 565.95222473 933.19667053 C564.75536047 940.33312522 562.43175667 946.98275975 559.98046875 953.78125 C559.5625708 954.98031982 559.14467285 956.17938965 558.71411133 957.41479492 C548.49309343 986.57921177 535.86586751 1015.13335398 520.85546875 1042.15625 C520.32791992 1043.11112305 519.80037109 1044.06599609 519.25683594 1045.04980469 C504.25969665 1072.04125277 487.13332535 1098.01460791 467.85546875 1122.15625 C473.60604705 1129.20145487 480.09428547 1135.49845112 486.54272461 1141.89355469 C487.83297549 1143.17696688 489.12297218 1144.46063467 490.41273499 1145.74453735 C493.18112993 1148.49964846 495.95093794 1151.25332828 498.72175407 1154.00600433 C503.10946153 1158.36575671 507.49165416 1162.7310238 511.87269592 1167.09747314 C513.37616355 1168.5957975 514.87963784 1170.09411516 516.38311863 1171.5924263 C517.13580591 1172.34252802 517.8884932 1173.09262975 518.66398919 1173.86546183 C528.85624609 1184.02174829 539.05319998 1194.17328272 549.26049805 1204.31445312 C556.1573227 1211.16668537 563.0469225 1218.02609455 569.92852122 1224.89361882 C573.56459655 1228.5216482 577.20425472 1232.14591106 580.85288811 1235.76131439 C584.28675936 1239.16396387 587.71105751 1242.57596653 591.12848473 1245.99512863 C592.37820889 1247.24217383 593.63132951 1248.48582683 594.88822556 1249.72564316 C611.51352819 1266.13491149 621.03829864 1283.85650378 621.29296875 1307.53125 C621.15771313 1327.78374139 614.0120829 1345.53009641 599.85546875 1360.15625 C596.66547657 1363.04857572 593.35846018 1365.65493096 589.85546875 1368.15625 C589.2109375 1368.62675781 588.56640625 1369.09726563 587.90234375 1369.58203125 C579.67913254 1375.16206743 569.64405143 1378.63165659 559.85546875 1380.15625 C558.68564453 1380.35734375 558.68564453 1380.35734375 557.4921875 1380.5625 C538.53872276 1383.09346343 518.60684651 1377.84756623 503.45524883 1366.3320322 C495.62171872 1360.03860204 488.56540584 1353.1368972 481.48950195 1346.01733398 C480.1878336 1344.7151002 478.88572215 1343.41330919 477.58320618 1342.11192322 C474.07947889 1338.60876531 470.58191438 1335.09951434 467.08549523 1331.58906436 C463.41894445 1327.90993636 459.74665715 1324.23654294 456.07499695 1320.56251526 C449.13688993 1313.6182139 442.20389311 1306.66883416 435.27275676 1299.71757609 C427.37578744 1291.79818381 419.47307859 1283.88452946 411.56990302 1275.97133148 C395.32540274 1259.70597559 379.08805667 1243.43349366 362.85546875 1227.15625 C361.42746459 1228.09968191 360.00060415 1229.04484512 358.57421875 1229.99072266 C357.77951172 1230.51687164 356.98480469 1231.04302063 356.16601562 1231.58511353 C353.57979347 1233.34370497 351.11178283 1235.21489435 348.64672852 1237.13720703 C332.15021072 1249.97557648 314.02670174 1260.86138897 295.85546875 1271.15625 C295.13343262 1271.56536621 294.41139648 1271.97448242 293.66748047 1272.39599609 C289.13814823 1274.95263975 284.58998309 1277.47279407 280.02587891 1279.96679688 C277.99876917 1281.07771686 275.9797218 1282.20217546 273.9609375 1283.328125 C238.66353848 1302.7717206 181.43097362 1332.15625 140.85546875 1332.15625 C140.67113281 1333.06117187 140.48679687 1333.96609375 140.296875 1334.8984375 C131.40530634 1377.26383056 118.73341405 1419.6991382 100.85546875 1459.15625 C100.38125488 1460.20796387 99.90704102 1461.25967773 99.41845703 1462.34326172 C93.93652689 1474.3952954 88.06758518 1486.04569225 80.85546875 1497.15625 C80.15035156 1498.24808594 79.44523438 1499.33992188 78.71875 1500.46484375 C63.69710116 1522.92989489 44.08529292 1542.87244442 16.85546875 1549.15625 C-2.87028917 1552.4995988 -21.8866228 1548.32095943 -38.453125 1537.13671875 C-46.48155038 1531.22900951 -53.99260296 1525.05143518 -60.14453125 1517.15625 C-60.58265137 1516.59663574 -61.02077148 1516.03702148 -61.47216797 1515.46044922 C-102.13842195 1463.23655893 -119.40037055 1396.29552551 -135.14453125 1333.15625 C-135.67071045 1333.00591309 -136.19688965 1332.85557617 -136.73901367 1332.70068359 C-137.48513916 1332.48750488 -138.23126465 1332.27432617 -139 1332.0546875 C-139.83837402 1331.81532471 -140.67674805 1331.57596191 -141.54052734 1331.3293457 C-143.43575159 1330.78749787 -145.33059615 1330.24432059 -147.22509766 1329.69995117 C-151.85072975 1328.37263885 -156.47770957 1327.05816731 -161.125 1325.80859375 C-194.71784628 1316.68369493 -226.75949398 1303.0689845 -258.14453125 1288.15625 C-259.03624023 1287.73375977 -259.92794922 1287.31126953 -260.84667969 1286.87597656 C-290.58433639 1272.6874214 -318.7620024 1254.84501272 -345.14453125 1235.15625 C-346.23665515 1234.34982143 -347.32908006 1233.54380026 -348.421875 1232.73828125 C-351.34712375 1230.56644742 -354.250976 1228.37011106 -357.14453125 1226.15625 C-357.67965332 1225.74729492 -358.21477539 1225.33833984 -358.76611328 1224.91699219 C-371.9766966 1214.78545292 -384.45446481 1203.85347453 -396.65429688 1192.53320312 C-398.19098363 1191.11332873 -399.73694399 1189.70416758 -401.28515625 1188.296875 C-411.40661317 1179.07309126 -421.52487254 1169.66363649 -430.3828125 1159.19921875 C-432.23516967 1157.05114159 -434.15274409 1154.97036464 -436.08276367 1152.89208984 C-441.69667699 1146.84222778 -446.97135787 1140.58955535 -452.14453125 1134.15625 C-453.16404047 1132.91557741 -454.18496308 1131.67606537 -455.20703125 1130.4375 C-462.51290783 1121.56366571 -469.47207982 1112.51435764 -476.14453125 1103.15625 C-476.69254395 1102.39296387 -477.24055664 1101.62967773 -477.80517578 1100.84326172 C-485.6293085 1089.92703525 -493.03211358 1078.85854565 -499.87402344 1067.30029297 C-501.10280058 1065.22667251 -502.34480186 1063.16154105 -503.58984375 1061.09765625 C-528.05880639 1020.30620716 -546.75357322 977.11272335 -561.1015625 931.8046875 C-561.62097412 930.18771973 -561.62097412 930.18771973 -562.15087891 928.53808594 C-563.14453125 925.15625 -563.14453125 925.15625 -563.97802734 921.31347656 C-565.16101152 914.87555203 -565.16101152 914.87555203 -568.82421875 909.7668457 C-571.25503829 908.92734481 -573.60228772 908.55378647 -576.14453125 908.15625 C-578.64825625 907.49014044 -581.14024601 906.80256551 -583.6328125 906.09765625 C-585.05732349 905.71203761 -586.48239261 905.32847593 -587.90795898 904.94677734 C-641.16300594 890.60433933 -697.04534082 872.82982502 -740.14453125 837.15625 C-741.06298828 836.44082031 -741.06298828 836.44082031 -742 835.7109375 C-757.91036175 822.96808484 -769.38428523 802.67843729 -771.92578125 782.56640625 C-773.3542252 760.29798538 -765.72946927 740.85418331 -751.14453125 724.15625 C-742.7408735 714.80370923 -733.73694368 706.91686888 -723.14453125 700.15625 C-722.05060059 699.45701416 -722.05060059 699.45701416 -720.93457031 698.74365234 C-683.30528981 674.96088134 -620.66380578 643.15625 -575.14453125 643.15625 C-574.92539062 642.063125 -574.70625 640.97 -574.48046875 639.84375 C-569.73280205 616.51836862 -563.50936345 593.79193234 -556.14453125 571.15625 C-555.84434082 570.23360352 -555.54415039 569.31095703 -555.23486328 568.36035156 C-538.48611305 517.49812233 -513.53142376 469.1632895 -483.14453125 425.15625 C-482.61875488 424.39103027 -482.09297852 423.62581055 -481.55126953 422.83740234 C-474.76504401 412.98642981 -467.65121621 403.46754703 -460.14453125 394.15625 C-459.61682129 393.49705566 -459.08911133 392.83786133 -458.54541016 392.15869141 C-452.65221122 384.79781767 -446.73325832 377.49948423 -440.33984375 370.5625 C-438.47335607 368.51667008 -436.64875199 366.44523 -434.83203125 364.35546875 C-431.30681609 360.3171191 -427.68937361 356.37573415 -424.01953125 352.46875 C-423.3742749 351.78176025 -422.72901855 351.09477051 -422.06420898 350.38696289 C-414.11849571 341.96452628 -406.12696318 333.51779224 -397.2890625 326.01953125 C-394.98272454 324.01566384 -392.75229235 321.94371281 -390.52026367 319.85791016 C-385.20279165 314.89186036 -379.80792248 310.10548357 -374.12890625 305.55078125 C-371.91425583 303.77384315 -369.71960744 301.98129198 -367.53515625 300.16796875 C-307.96682103 250.8844906 -206.55306288 184.15625 -126.14453125 184.15625 C-125.86802734 182.92841797 -125.86802734 182.92841797 -125.5859375 181.67578125 C-111.8078425 123.56283835 -88.72922523 46.4339627 -36.1953125 12.01953125 C-24.91221834 5.12832009 -13.21410217 0.96277611 0 0 Z M-11.51953125 74.53125 C-30.33274119 97.24581684 -56.14453125 142.3711749 -56.14453125 172.15625 C-54.2487891 172.18417419 -52.352914 172.20304446 -50.45703125 172.21875 C-49.40128906 172.23035156 -48.34554687 172.24195313 -47.2578125 172.25390625 C-43.93115854 172.2266476 -40.65375711 171.9519942 -37.34057617 171.65844727 C-29.8544851 171.07259004 -22.39946994 171.01068663 -14.89453125 171.0234375 C-13.46451806 171.02276115 -12.03450499 171.02178839 -10.60449219 171.02053833 C-7.62954599 171.0190769 -4.65463013 171.02116525 -1.6796875 171.02587891 C2.09534115 171.03157522 5.87029865 171.02828779 9.64532471 171.02230644 C12.59163937 171.01865845 15.53793772 171.01985868 18.48425293 171.02243423 C19.87463388 171.02309184 21.26501641 171.02231693 22.65539551 171.01995468 C30.52684891 171.00950939 38.30371393 171.23779349 46.14616394 171.93263245 C49.50588758 172.20993354 52.7977617 172.25578524 56.16796875 172.21875 C57.25722656 172.20972656 58.34648438 172.20070313 59.46875 172.19140625 C60.25636719 172.17980469 61.04398438 172.16820312 61.85546875 172.15625 C61.28576747 167.3489911 60.30656901 163.06413004 58.703125 158.5 C58.37995804 157.5762558 58.37995804 157.5762558 58.05026245 156.6338501 C57.34798071 154.63818775 56.63431242 152.64690501 55.91796875 150.65625 C55.55023849 149.62763855 55.55023849 149.62763855 55.17507935 148.57824707 C38.83005788 101.70193397 38.83005788 101.70193397 6.85546875 65.15625 C-0.68964604 61.80286565 -6.65756984 69.38946347 -11.51953125 74.53125 Z M-72.76953125 322.71875 C-74.03837158 322.92854492 -75.30721191 323.13833984 -76.61450195 323.35449219 C-81.39548811 324.17525193 -81.39548811 324.17525193 -86.14453125 325.15625 C-87.05122559 325.34566162 -87.95791992 325.53507324 -88.89208984 325.73022461 C-91.49841448 327.0555677 -91.49841448 327.0555677 -92.3371582 330.51879883 C-92.6339543 332.05954227 -92.90010737 333.6063354 -93.14453125 335.15625 C-93.2965097 336.04565277 -93.44848816 336.93505554 -93.60507202 337.85140991 C-94.1239505 341.01515152 -94.59755203 344.18335866 -95.0625 347.35546875 C-95.24043091 348.55328979 -95.41836182 349.75111084 -95.60168457 350.98522949 C-96.18510472 354.93713272 -96.76026342 358.89014856 -97.33203125 362.84375 C-97.43103855 363.5266724 -97.53004585 364.2095948 -97.63205338 364.91321182 C-107.64849373 434.06580432 -113.99206047 503.60092145 -118.48046875 573.3125 C-118.58309273 574.90576614 -118.58309273 574.90576614 -118.68778992 576.53121948 C-118.74876358 577.49867096 -118.80973724 578.46612244 -118.87255859 579.46289062 C-118.95200211 580.72196228 -118.95200211 580.72196228 -119.03305054 582.00646973 C-119.12196895 583.72116136 -119.14453125 585.43925441 -119.14453125 587.15625 C-118.21007172 587.12923004 -117.27561218 587.10221008 -116.31283569 587.07437134 C-90.80052704 586.34320147 -65.29048704 585.83200879 -39.76953125 585.53125 C-38.84002907 585.52005379 -37.91052689 585.50885757 -36.95285797 585.49732208 C-7.96936358 585.15113153 20.99752617 585.13917042 49.98046875 585.53125 C50.78699638 585.54196281 51.59352402 585.55267563 52.42449188 585.56371307 C76.57363665 585.88739029 100.71397923 586.47536808 124.85546875 587.15625 C124.26620352 568.51351116 123.09778661 549.93906915 121.66796875 531.34375 C121.61393009 530.63653053 121.55989143 529.92931107 121.50421524 529.20066071 C116.33515115 461.55985984 108.93530931 394.0969534 97.85546875 327.15625 C46.05325668 308.84101973 -19.66079028 313.91465765 -72.76953125 322.71875 Z M164.85546875 347.15625 C164.92984161 347.72760178 165.00421448 348.29895355 165.08084106 348.88761902 C173.37903501 412.70805264 180.89517114 476.59562825 185.05078125 540.8359375 C185.0968816 541.54767876 185.14298195 542.25942001 185.19047928 542.99272919 C185.67203079 550.45933045 186.13077969 557.92684617 186.56298828 565.39648438 C186.63645477 566.61941193 186.70992126 567.84233948 186.78561401 569.10232544 C186.92151836 571.37183154 187.05083897 573.64174592 187.17214966 575.91207886 C187.23296722 576.91610748 187.29378479 577.92013611 187.35644531 578.95458984 C187.40496643 579.81982269 187.45348755 580.68505554 187.503479 581.57650757 C187.91633935 584.6023723 188.81754761 587.29054012 189.85546875 590.15625 C190.6485141 590.20556671 191.44155945 590.25488342 192.25863647 590.30569458 C263.59460168 594.75765519 335.04470438 599.85065944 405.80633545 610.25822449 C410.54738755 610.93459162 415.06605858 611.29009792 419.85546875 611.15625 C417.73095933 603.33901855 414.85473721 595.97160918 411.66796875 588.53125 C411.17748047 587.38116455 410.68699219 586.2310791 410.18164062 585.04614258 C406.69757983 576.95025555 403.02722204 569.01049969 398.92724609 561.20996094 C397.72304198 558.90249738 396.54902166 556.5807718 395.375 554.2578125 C382.4614018 528.89951258 366.77526933 505.24991718 348.85546875 483.15625 C347.70304687 481.71378906 347.70304687 481.71378906 346.52734375 480.2421875 C342.00854786 474.63319261 337.2975857 469.24763249 332.41015625 463.95703125 C330.45414243 461.81259408 328.55201082 459.64503443 326.66015625 457.4453125 C322.34507992 452.50107546 317.74637408 447.85570525 313.10546875 443.21875 C312.21875488 442.3321167 311.33204102 441.4454834 310.41845703 440.53198242 C305.21884883 435.37763378 299.99950615 430.50682252 294.21484375 426.015625 C291.68832732 424.02452927 289.34328354 421.90096748 286.98046875 419.71875 C281.21904637 414.49012373 275.0947822 409.79126098 268.85546875 405.15625 C268.18483398 404.65577148 267.51419922 404.15529297 266.82324219 403.63964844 C219.2773255 366.53770426 219.2773255 366.53770426 164.85546875 347.15625 Z M-167.97265625 350.578125 C-169.15327637 351.10269287 -170.33389648 351.62726074 -171.55029297 352.16772461 C-172.83211665 352.74632357 -174.11351975 353.32585508 -175.39453125 353.90625 C-176.36909271 354.34591599 -176.36909271 354.34591599 -177.36334229 354.79446411 C-210.62644103 369.8334519 -241.51606454 388.48538321 -270.14453125 411.15625 C-270.964375 411.79433594 -271.78421875 412.43242187 -272.62890625 413.08984375 C-282.66000156 420.97376016 -292.53931284 429.24826827 -301.4140625 438.42578125 C-303.12575063 440.13746938 -304.90962723 441.67077956 -306.76953125 443.21875 C-312.83939205 448.43859084 -318.12507396 454.48747291 -323.52148438 460.38476562 C-324.89398916 461.88279431 -326.27602673 463.37208055 -327.66015625 464.859375 C-332.943218 470.59852841 -337.76342077 476.64140403 -342.53515625 482.8046875 C-344.62697113 485.50598801 -346.77980182 488.148105 -348.95703125 490.78125 C-363.65050185 509.14808826 -375.7736263 529.36409319 -386.96679688 549.99755859 C-388.07827617 552.03480983 -389.21036867 554.05910904 -390.34765625 556.08203125 C-395.25137901 564.92636358 -399.406684 574.05645436 -403.39453125 583.34375 C-403.89001465 584.49536621 -404.38549805 585.64698242 -404.89599609 586.83349609 C-408.28852205 594.84524339 -411.30072418 602.9370869 -414.14453125 611.15625 C-401.7063942 610.59825124 -389.43195039 609.01548308 -377.08984375 607.43231201 C-315.90860967 599.62533162 -254.3472245 593.90275897 -192.7434082 590.70019531 C-191.59831787 590.63928711 -190.45322754 590.57837891 -189.2734375 590.515625 C-188.3151001 590.46889648 -187.3567627 590.42216797 -186.36938477 590.37402344 C-184.10687243 590.28656828 -184.10687243 590.28656828 -182.14453125 589.15625 C-181.69219264 586.53289369 -181.69219264 586.53289369 -181.55371094 583.29711914 C-181.47287262 582.02609344 -181.3920343 580.75506775 -181.30874634 579.44552612 C-181.22796391 578.0274863 -181.14718396 576.60944634 -181.06640625 575.19140625 C-180.97486815 573.71535859 -180.88226474 572.23937666 -180.78866577 570.76345825 C-180.58827114 567.58640616 -180.39272895 564.40910813 -180.20074463 561.23153687 C-179.68494685 552.73305483 -179.12335166 544.23753552 -178.55859375 535.7421875 C-178.47240343 534.4425623 -178.47240343 534.4425623 -178.38447189 533.11668205 C-177.23374826 515.83872269 -175.85341628 498.58722311 -174.26953125 481.34375 C-174.20807041 480.67444836 -174.14660957 480.00514671 -174.08328629 479.3155632 C-170.47701846 440.19236864 -166.26206365 401.07646019 -160.56616211 362.19970703 C-160.37675049 360.90532715 -160.18733887 359.61094727 -159.9921875 358.27734375 C-159.74480835 356.62883423 -159.74480835 356.62883423 -159.49243164 354.94702148 C-159.06206224 351.96343263 -159.06206224 351.96343263 -159.14453125 348.15625 C-162.7189099 348.15625 -164.70754115 349.12596331 -167.97265625 350.578125 Z M-122.14453125 650.15625 C-123.71353819 689.75475634 -124.31918966 729.36248139 -124.27490234 768.99023438 C-124.26920585 774.12806169 -124.27260411 779.26583712 -124.27834606 784.40366268 C-124.31473034 823.00279166 -123.67279275 861.58607465 -122.14453125 900.15625 C-109.57430377 900.82377623 -97.01015109 901.40038956 -84.42578125 901.7109375 C-83.58749283 901.73187344 -82.74920441 901.75280937 -81.88551331 901.77437973 C-55.61429834 902.40620582 -29.33242397 902.30700894 -3.05534172 902.28481936 C1.9297465 902.28104683 6.91481485 902.28241146 11.89990234 902.28662109 C51.55271629 902.33867543 51.55271629 902.33867543 91.19921875 901.7109375 C91.99025497 901.69152225 92.7812912 901.67210701 93.59629822 901.65210342 C105.02767187 901.36052861 116.43890602 900.79964621 127.85546875 900.15625 C128.59341777 890.01371776 129.13741447 879.88583061 129.41015625 869.71875 C129.43109219 868.94859558 129.45202812 868.17844116 129.47359848 867.38494873 C130.20802435 839.07830373 130.00511199 810.74676703 129.98403811 782.4327879 C129.98026521 776.77484734 129.98162868 771.11692429 129.98583984 765.45898438 C130.0926025 723.02233309 130.0926025 723.02233309 129.41015625 680.59375 C129.390741 679.87000183 129.37132576 679.14625366 129.35132217 678.40057373 C129.08602216 668.96624056 128.54023613 659.56784216 127.85546875 650.15625 C88.83884948 648.22188175 49.78572779 647.9890157 10.72924805 648.02587891 C4.64178388 648.03157231 -1.4456365 648.02818624 -7.53309917 648.02243519 C-45.74702615 647.99192205 -83.97051497 648.24551649 -122.14453125 650.15625 Z M191.85546875 653.15625 C191.74494037 666.17139226 191.75601111 679.17961824 192.078125 692.19140625 C193.45777523 748.35002301 193.40374788 804.57256848 192.01353455 860.73022461 C191.72611028 872.87069788 191.75234732 885.01330474 191.85546875 897.15625 C265.90195142 893.93552594 339.67679194 886.12687502 413.06640625 875.9765625 C414.29328156 875.80708099 415.52015686 875.63759949 416.78421021 875.46298218 C417.91164642 875.30520294 419.03908264 875.14742371 420.20068359 874.98486328 C421.17774261 874.84831329 422.15480164 874.71176331 423.16146851 874.57107544 C425.74536629 874.17320371 428.29663732 873.69054189 430.85546875 873.15625 C439.68625028 838.61121552 444.98025242 803.86507631 445.85546875 768.15625 C445.88833984 767.10824219 445.88833984 767.10824219 445.921875 766.0390625 C446.76266996 737.22782186 445.07232043 706.11215333 437.85546875 678.15625 C361.24987447 666.90571939 284.45245797 658.89053767 207.18359375 653.85546875 C205.54565857 653.74807877 205.54565857 653.74807877 203.87463379 653.63851929 C202.37096252 653.54227768 202.37096252 653.54227768 200.83691406 653.4440918 C199.96657532 653.38811325 199.09623657 653.3321347 198.19952393 653.27445984 C196.08715612 653.16793391 193.97052088 653.15625 191.85546875 653.15625 Z M-195.20825195 653.52001953 C-196.44857178 653.60100891 -197.6888916 653.68199829 -198.96679688 653.76544189 C-200.33464786 653.85646196 -201.70248602 653.94767495 -203.0703125 654.0390625 C-204.12307877 654.10901554 -204.12307877 654.10901554 -205.19711304 654.18038177 C-281.19299625 659.23823999 -356.79715823 666.91276305 -432.14453125 678.15625 C-439.92702191 723.66863603 -442.83086365 770.24929939 -436.14453125 816.15625 C-436.04035889 816.87214294 -435.93618652 817.58803589 -435.82885742 818.32562256 C-433.57176683 833.70915193 -431.07510708 849.11082869 -427.64453125 864.28125 C-427.47969238 865.08006592 -427.31485352 865.87888184 -427.14501953 866.7019043 C-426.61844776 869.09939324 -426.61844776 869.09939324 -425.14453125 872.15625 C-420.27424581 874.3178211 -415.07157076 874.90488364 -409.8359375 875.63671875 C-408.90715286 875.77021225 -407.97836823 875.90370575 -407.0214386 876.04124451 C-403.91770062 876.4833857 -400.81261358 876.91476318 -397.70703125 877.34375 C-396.6210968 877.49487244 -395.53516235 877.64599487 -394.4163208 877.80169678 C-335.8882991 885.90668407 -277.01750981 891.39257279 -218.08203125 895.46875 C-216.81821625 895.55619476 -215.55440125 895.64363953 -214.25228882 895.73373413 C-210.68405772 895.97857859 -207.11556688 896.21900549 -203.546875 896.45703125 C-202.49228088 896.52862457 -201.43768677 896.6002179 -200.35113525 896.67398071 C-199.36893005 896.73814178 -198.38672485 896.80230286 -197.37475586 896.8684082 C-196.52884384 896.92438675 -195.68293182 896.9803653 -194.81138611 897.03804016 C-191.58693983 897.18096555 -188.37169514 897.17454657 -185.14453125 897.15625 C-185.17416962 896.26736084 -185.20380798 895.37847168 -185.23434448 894.46264648 C-186.40870902 857.35491402 -186.29835665 820.24161608 -186.27309966 783.1200285 C-186.26932906 776.92766972 -186.27068915 770.73532694 -186.27490234 764.54296875 C-186.32541337 688.57228098 -186.32541337 688.57228098 -185.14453125 653.15625 C-188.53094147 653.15625 -191.83170271 653.29893005 -195.20825195 653.52001953 Z M590.85546875 711.15625 C590.87021744 711.75361969 590.88496613 712.35098938 590.90016174 712.96646118 C591.81464366 750.4174537 591.78915693 787.15774508 588.203125 824.46191406 C587.71114284 829.68991547 587.2758853 834.92206394 586.85546875 840.15625 C594.48003912 838.59390474 601.86090294 836.45888496 609.29296875 834.15625 C609.92119537 833.96161163 610.549422 833.76697327 611.19668579 833.56643677 C668.88370421 816.09959353 668.88370421 816.09959353 713.85546875 778.15625 C713.97244462 772.19048078 711.78276449 769.24633787 707.85546875 765.12109375 C706.86546875 764.14849609 706.86546875 764.14849609 705.85546875 763.15625 C705.27796875 762.58003906 704.70046875 762.00382813 704.10546875 761.41015625 C678.90529623 737.89361594 641.82386553 727.07800669 609.78515625 716.65234375 C609.14652145 716.4434552 608.50788666 716.23456665 607.84989929 716.01934814 C602.23550226 714.21383701 596.55229655 712.67853934 590.85546875 711.15625 Z M-593.2578125 713.28125 C-593.97519592 713.50366867 -594.69257935 713.72608734 -595.43170166 713.95524597 C-597.77492697 714.68437028 -600.11624069 715.41934822 -602.45703125 716.15625 C-603.25285614 716.40645905 -604.04868103 716.65666809 -604.86862183 716.91445923 C-623.7912852 722.88132726 -642.16906373 729.73244437 -660.14453125 738.15625 C-660.8391748 738.48093262 -661.53381836 738.80561523 -662.24951172 739.14013672 C-689.74211465 751.79789589 -689.74211465 751.79789589 -708.14453125 774.15625 C-707.77620418 780.76508992 -702.64764201 784.8030257 -698.14453125 789.15625 C-671.04967127 812.48242521 -634.7373997 823.87732599 -601.33203125 834.71875 C-600.66186981 834.9369339 -599.99170837 835.1551178 -599.30123901 835.37991333 C-597.39009817 835.9996528 -595.47634093 836.61130593 -593.5625 837.22265625 C-592.46703857 837.57271729 -591.37157715 837.92277832 -590.24291992 838.28344727 C-587.21797367 839.13556159 -584.25198516 839.70290327 -581.14453125 840.15625 C-581.58759809 832.7258012 -582.09289978 825.32684812 -582.8984375 817.92578125 C-584.98398264 797.96087281 -585.42592204 778.09617432 -585.39453125 758.03125 C-585.39309616 756.08758041 -585.39309616 756.08758041 -585.39163208 754.10464478 C-585.36699192 739.75964454 -585.17274104 725.46749558 -584.14453125 711.15625 C-587.32666002 711.15625 -590.24368177 712.33927354 -593.2578125 713.28125 Z M-400.14453125 941.15625 C-388.25508726 970.55560242 -371.15163228 997.86738587 -352.14453125 1023.15625 C-351.59522949 1023.89488281 -351.04592773 1024.63351562 -350.47998047 1025.39453125 C-344.49485885 1033.4372012 -338.4376393 1041.26197803 -331.55859375 1048.56640625 C-329.60804005 1050.65899056 -327.71911062 1052.77854698 -325.84375 1054.9375 C-317.27600581 1064.76852583 -308.41338439 1074.51491061 -298.55078125 1083.0625 C-296.2832221 1085.03557095 -294.08638211 1087.07126632 -291.89501953 1089.12817383 C-285.4671512 1095.13874319 -278.68220357 1100.57309493 -271.7109375 1105.93652344 C-269.61156191 1107.57126167 -267.5694039 1109.27255256 -265.51953125 1110.96875 C-237.7958895 1133.12957293 -206.30962429 1150.41032263 -174.14453125 1165.15625 C-173.44956543 1165.47706543 -172.75459961 1165.79788086 -172.03857422 1166.12841797 C-169.21189569 1167.39498881 -167.28179615 1168.15625 -164.14453125 1168.15625 C-164.72201613 1159.21454689 -165.50695639 1150.33087803 -166.5625 1141.43359375 C-166.84786105 1138.96735586 -167.13258029 1136.50104364 -167.41674805 1134.03466797 C-167.64048599 1132.09935211 -167.64048599 1132.09935211 -167.8687439 1130.12493896 C-170.69138684 1105.62367529 -173.20293287 1081.10258314 -175.33203125 1056.53125 C-175.39354496 1055.82153549 -175.45505867 1055.11182098 -175.51843643 1054.38059998 C-178.19964648 1023.33793393 -180.27189287 992.25727224 -182.14453125 961.15625 C-185.54991127 960.16271725 -188.82476484 959.89721383 -192.36010742 959.67895508 C-193.63409393 959.59804123 -194.90808044 959.51712738 -196.22067261 959.4337616 C-196.90484127 959.39195456 -197.58900993 959.35014751 -198.29391098 959.30707359 C-201.24811702 959.1261319 -204.20171457 958.93602245 -207.15538788 958.7466135 C-208.73918891 958.64513974 -210.3230163 958.54407675 -211.90686798 958.44339657 C-263.59772339 955.15713994 -315.10036799 950.56004881 -366.53442383 944.42822266 C-383.3042516 942.41198322 -383.3042516 942.41198322 -400.14453125 941.15625 Z M387.69921875 942.4765625 C385.40785985 942.76499158 383.11643399 943.05288911 380.82495117 943.34033203 C379.61197357 943.49358948 378.39899597 943.64684692 377.14926147 943.80474854 C319.47357786 951.0488311 261.51309731 956.07917158 203.48388672 959.47802734 C202.72728256 959.52247482 201.97067841 959.5669223 201.19114685 959.61271667 C199.33984491 959.71862495 197.48817719 959.81809229 195.63647461 959.91674805 C193.25330698 960.12198792 191.14359629 960.4824946 188.85546875 961.15625 C188.00942231 964.94307182 187.61763511 968.61433359 187.37817383 972.48535156 C187.29725998 973.75925751 187.21634613 975.03316345 187.13298035 976.34567261 C187.09117331 977.02734371 187.04936626 977.70901482 187.00629234 978.41134262 C186.82496415 981.36073183 186.63511323 984.309556 186.44583225 987.25844383 C186.34441049 988.83927396 186.24334595 990.42012704 186.14261532 992.00100136 C183.36572747 1035.56012862 179.95684934 1079.04290857 174.8828125 1122.40234375 C174.80048874 1123.10594276 174.71816498 1123.80954178 174.63334656 1124.53446198 C173.76318311 1131.95291192 172.87126402 1139.36825784 171.95166016 1146.78076172 C171.7299691 1148.5959304 171.7299691 1148.5959304 171.50379944 1150.44776917 C171.2276539 1152.70404167 170.94549254 1154.95958915 170.65623474 1157.21421814 C170.47460533 1158.70496605 170.47460533 1158.70496605 170.28930664 1160.22583008 C170.18082901 1161.08678787 170.07235138 1161.94774567 169.96058655 1162.83479309 C169.85467796 1165.17371415 170.16247857 1166.93200128 170.85546875 1169.15625 C202.79274229 1154.7881992 233.58130977 1138.98366005 261.85546875 1118.15625 C262.53689941 1117.65883301 263.21833008 1117.16141602 263.92041016 1116.64892578 C276.25976307 1107.62981199 287.88844564 1098.0018357 299.125 1087.640625 C301.2546911 1085.70288031 303.40863357 1083.81571158 305.58984375 1081.9375 C310.34816078 1077.78368887 314.82990351 1073.37334247 319.29296875 1068.90625 C320.13263184 1068.06650635 320.97229492 1067.2267627 321.83740234 1066.36157227 C326.86494145 1061.28750908 331.58319446 1056.17260227 335.97265625 1050.53515625 C337.91249439 1048.08419893 339.97531028 1045.81792549 342.10546875 1043.53125 C366.00501102 1017.2209713 384.5245238 985.7211093 400.48046875 954.15625 C400.79918945 953.52823486 401.11791016 952.90021973 401.44628906 952.25317383 C403.2434444 948.63260924 404.66624179 945.018294 405.85546875 941.15625 C399.70546334 940.97517841 393.79275003 941.68522645 387.69921875 942.4765625 Z M-119.14453125 964.15625 C-115.49898455 1025.1420648 -110.35331486 1085.90776313 -102.94091797 1146.55712891 C-102.31009601 1151.73559256 -101.71773331 1156.91724836 -101.14454651 1162.10237122 C-100.75756376 1165.55464 -100.34443214 1169.00333443 -99.92214966 1172.45144653 C-99.73994757 1173.98050596 -99.56842173 1175.51088317 -99.40866089 1177.04244995 C-98.97135938 1181.19578666 -98.47955894 1185.18910012 -97.14453125 1189.15625 C-94.24784206 1191.41228744 -93.55122792 1191.67127661 -90.14453125 1192.15625 C-89.24943848 1192.35814941 -88.3543457 1192.56004883 -87.43212891 1192.76806641 C-84.20164609 1193.48092524 -80.96429331 1194.07835239 -77.70703125 1194.65625 C-76.52214111 1194.87055664 -75.33725098 1195.08486328 -74.11645508 1195.30566406 C-17.12795772 1205.36714432 46.87233189 1206.72276107 102.85546875 1190.15625 C112.96824195 1124.11158683 119.2849231 1057.49670722 123.73046875 990.84375 C123.7922229 989.91827362 123.85397705 988.99279724 123.91760254 988.03927612 C124.08611682 985.47825976 124.24966865 982.91699954 124.41015625 980.35546875 C124.45669342 979.63176086 124.50323059 978.90805298 124.55117798 978.16241455 C124.83283409 973.48292028 124.89285857 968.84145693 124.85546875 964.15625 C105.26712239 964.00427548 85.69335626 964.23416043 66.10797119 964.58505249 C22.96790357 965.35543737 -20.13087499 965.28786051 -63.27001953 964.5144043 C-81.89920532 964.18339651 -100.51298558 964.0570026 -119.14453125 964.15625 Z M-66.14453125 1344.15625 C-63.5014998 1356.11779549 -60.30039609 1367.79839208 -56.58203125 1379.46875 C-56.32296997 1380.28686157 -56.06390869 1381.10497314 -55.79699707 1381.94787598 C-50.9171021 1397.30841215 -45.37349328 1412.28622787 -39.14453125 1427.15625 C-38.78939453 1428.02072754 -38.43425781 1428.88520508 -38.06835938 1429.77587891 C-29.83126272 1449.76247942 -18.94312489 1471.60612814 -1.58203125 1485.15625 C1.86233985 1486.56932532 3.32163911 1486.40348399 6.85546875 1485.15625 C9.79805721 1483.08848513 12.31118724 1480.69087579 14.85546875 1478.15625 C15.48324219 1477.55167969 16.11101562 1476.94710938 16.7578125 1476.32421875 C45.9694422 1446.03731433 58.48162942 1395.89212899 69.48046875 1356.59375 C69.74061768 1355.67730713 70.0007666 1354.76086426 70.26879883 1353.81665039 C70.60947388 1352.5596936 70.60947388 1352.5596936 70.95703125 1351.27734375 C71.15635254 1350.5495874 71.35567383 1349.82183105 71.56103516 1349.07202148 C72.03768564 1346.94178672 72.03768564 1346.94178672 70.85546875 1344.15625 C70.14084473 1344.24712891 69.4262207 1344.33800781 68.68994141 1344.43164062 C24.62742952 1349.72484242 -22.10453881 1349.52907192 -66.14453125 1344.15625 Z " fill="#003335" transform="translate(772.14453125,-0.15625)"/>
<path d="M0 0 C12.02368881 2.28894412 23.62969951 5.15188778 35.22753906 9.06689453 C37.25027927 9.74767236 39.27611481 10.41927331 41.30371094 11.08544922 C44.85298851 12.25169649 48.39579803 13.43596341 51.9375 14.625 C53.07002197 14.99713623 54.20254395 15.36927246 55.36938477 15.75268555 C56.43213623 16.11531494 57.4948877 16.47794434 58.58984375 16.8515625 C59.53722412 17.16947754 60.48460449 17.48739258 61.46069336 17.81494141 C64.55304469 19.25809816 66.01073379 20.19031592 68 23 C68.92440907 26.33050992 69.31022684 29.69319671 69.7109375 33.12109375 C69.84429001 34.14623077 69.97764252 35.1713678 70.11503601 36.22756958 C70.55245092 39.62892344 70.96433192 43.03282072 71.375 46.4375 C71.67666926 48.84574518 71.9793387 51.25386526 72.28295898 53.66186523 C73.06353856 59.90100753 73.81950186 66.14286099 74.56646729 72.3861084 C74.97491409 75.79088604 75.38939962 79.19486321 75.80615234 82.59863281 C82.16014237 134.68038294 86.60729663 186.96243469 89.79541016 239.328125 C89.87068436 240.55286026 89.94595856 241.77759552 90.02351379 243.03944397 C90.1624356 245.31579747 90.29814088 247.59235053 90.42997742 249.86912537 C90.49087051 250.87322952 90.55176361 251.87733368 90.61450195 252.91186523 C90.66524368 253.7793187 90.71598541 254.64677216 90.76826477 255.54051208 C91.00748696 258.07946171 91.45688204 260.50984881 92 263 C92.79304535 263.04931671 93.5860907 263.09863342 94.40316772 263.14944458 C159.60916782 267.21884412 224.61329631 272.32991762 289.44293213 280.55969238 C292.63045896 280.95425678 295.81989456 281.32557028 299.01119328 281.68817329 C301.04244123 281.92232357 303.0721167 282.16697804 305.10160828 282.41586304 C307.67719402 282.73121402 310.2548798 283.02997558 312.83454895 283.30996704 C313.99024887 283.45695038 315.14594879 283.60393372 316.33666992 283.75537109 C317.35967697 283.87528412 318.38268402 283.99519714 319.43669128 284.1187439 C322 285 322 285 323.76679993 287.35171509 C325.3652513 290.78437353 326.63831427 294.28077327 327.8125 297.875 C328.06749268 298.64803467 328.32248535 299.42106934 328.58520508 300.2175293 C331.58393237 309.51844868 334.00658448 318.97218624 336.36572266 328.45214844 C336.91553794 330.6607213 337.47747291 332.86572273 338.04296875 335.0703125 C339.47675029 340.87275236 340.35169731 346.02114565 340 352 C331.07881787 351.41665079 322.27812201 350.44458709 313.4296875 349.1796875 C311.45595029 348.90430208 309.4822092 348.62894327 307.50832939 348.35458183 C306.12124675 348.16175556 304.73421967 347.96852925 303.34724617 347.77491951 C238.05789936 338.66502182 172.35180326 332.12365411 106.51879883 328.54370117 C105.41560303 328.48287354 104.31240723 328.4220459 103.17578125 328.359375 C102.25708252 328.31264648 101.33838379 328.26591797 100.3918457 328.21777344 C98.1613804 328.01469341 96.15026711 327.61248325 94 327 C94.02505615 327.61665527 94.0501123 328.23331055 94.07592773 328.86865234 C94.43420469 337.91088039 94.72943908 346.95479038 95 356 C95.03607361 357.20212128 95.03607361 357.20212128 95.07287598 358.42852783 C96.87260998 419.54537714 96.83396489 480.88473279 95 542 C94.96392639 543.20598846 94.96392639 543.20598846 94.92712402 544.43634033 C94.65911898 553.29244322 94.35971444 562.14709224 94 571 C95.29321922 570.76726631 95.29321922 570.76726631 96.61256409 570.52983093 C99.82224465 570.02780282 102.95834068 569.73254694 106.19897461 569.52270508 C107.41912262 569.44179123 108.63927063 569.36087738 109.89639282 569.2775116 C110.54639881 569.23570456 111.1964048 569.19389751 111.86610794 569.15082359 C114.68648394 568.96897149 117.50633048 568.77945265 120.3262291 568.5903635 C121.83790053 568.48900229 123.34959176 568.38793606 124.86130142 568.28714657 C189.37451083 563.98230029 253.72158418 557.76839515 317.71557617 548.42163086 C318.39026947 548.32401459 319.06496277 548.22639832 319.76010132 548.12582397 C321.52324683 547.86980512 323.2857066 547.60907541 325.0480957 547.34790039 C327.73515142 547.03121406 330.29822972 546.93199349 333 547 C331.25852599 558.58691263 327.20959479 569.70119326 323.25 580.6875 C322.81824463 581.89124268 322.38648926 583.09498535 321.94165039 584.33520508 C311.86520009 612.13479991 311.86520009 612.13479991 309 615 C307.28356961 615.29901282 305.55662105 615.53784812 303.82763672 615.75268555 C302.14688301 615.96411194 302.14688301 615.96411194 300.43217468 616.17980957 C299.19385391 616.3305896 297.95553314 616.48136963 296.6796875 616.63671875 C295.38855545 616.79660278 294.0974234 616.95648682 292.76716614 617.12121582 C288.47074652 617.65139486 284.1729738 618.17009474 279.875 618.6875 C279.13625767 618.77672855 278.39751534 618.86595711 277.63638687 618.95788956 C232.79097231 624.37196405 187.86392827 628.5557346 142.8125 631.8125 C141.71018351 631.89222864 141.71018351 631.89222864 140.58559799 631.97356796 C124.06614092 633.16530544 107.54775002 634.27923812 91 635 C90.96559814 635.81597656 90.93119629 636.63195312 90.89575195 637.47265625 C88.19916193 698.9465472 82.3535202 760.33120534 75.25 821.4375 C75.14913086 822.32016541 75.04826172 823.20283081 74.94433594 824.11224365 C74.66333319 826.5536869 74.37261428 828.99374518 74.078125 831.43359375 C73.9981427 832.13573502 73.9181604 832.83787628 73.83575439 833.56129456 C73.3692766 837.30889668 72.79526018 840.65366253 71 844 C68.33245772 845.37934419 65.93711288 846.40107473 63.125 847.375 C62.32707031 847.66681152 61.52914062 847.95862305 60.70703125 848.25927734 C59.00871402 848.876337 57.30708455 849.48434389 55.60253906 850.08398438 C53.05835046 850.97946239 50.52492149 851.90081275 47.9921875 852.828125 C19.04166583 863.32056456 19.04166583 863.32056456 5 864 C5.62481802 855.60585235 6.54009274 847.28209736 7.63671875 838.9375 C7.96758385 836.37262856 8.29788092 833.8076838 8.62768555 831.24267578 C8.75640454 830.24441363 8.75640454 830.24441363 8.88772392 829.22598457 C15.58604519 777.2434016 20.4218359 725.16527826 24.19441223 672.89584351 C25.04021652 661.25628826 25.99746446 649.62701252 27 638 C26.24152771 638.02779037 25.48305542 638.05558075 24.70159912 638.08421326 C-55.79411325 641.00310829 -136.50543213 640.85969964 -217 638 C-216.67 638.66 -216.34 639.32 -216 640 C-215.79470429 641.93592399 -215.64576469 643.87791521 -215.52270508 645.82080078 C-215.44178619 647.05811951 -215.36086731 648.29543823 -215.27749634 649.57025146 C-215.23568867 650.23943352 -215.193881 650.90861557 -215.15080643 651.59807587 C-215.01721237 653.73235869 -214.87820282 655.8662264 -214.73764038 658.00006104 C-214.53442503 661.08595536 -214.33270682 664.17194186 -214.13192749 667.25799561 C-209.82834907 733.10617688 -203.11466879 798.64198698 -194 864 C-200.67242747 863.32908357 -206.95076273 862.21271678 -213.4375 860.5 C-214.4174292 860.24226807 -215.3973584 859.98453613 -216.40698242 859.71899414 C-224.30771267 857.57850026 -232.07109012 855.09366473 -239.8125 852.4375 C-240.87847412 852.07398438 -241.94444824 851.71046875 -243.04272461 851.3359375 C-244.0663208 850.97628906 -245.08991699 850.61664062 -246.14453125 850.24609375 C-247.03503174 849.93341553 -247.92553223 849.6207373 -248.84301758 849.29858398 C-250.40572388 848.65578491 -250.40572388 848.65578491 -252 848 C-253.24240952 847.57388428 -253.24240952 847.57388428 -254.50991821 847.13916016 C-261.3150532 844.42761058 -261.3150532 844.42761058 -263.10151672 840.70414734 C-263.74432427 837.73067084 -264.06193541 834.85365034 -264.296875 831.8203125 C-264.42178314 830.6905751 -264.54669128 829.56083771 -264.67538452 828.39686584 C-265.07879006 824.64274235 -265.4146339 820.88576494 -265.75 817.125 C-266.02076968 814.46087034 -266.29502938 811.7973217 -266.57373047 809.1340332 C-267.1504426 803.55412978 -267.6932424 797.97181595 -268.21191406 792.38623047 C-268.83278868 785.70105605 -269.50109207 779.02178345 -270.19204712 772.34342957 C-273.18651681 743.39182384 -275.60960155 714.40613629 -277.70748138 685.37744522 C-277.87294223 683.09093646 -278.03995238 680.80454452 -278.20709229 678.51815796 C-278.46997158 674.90809365 -278.72567676 671.29758403 -278.97586823 667.6866188 C-279.11093433 665.74982422 -279.25075596 663.81336303 -279.39080811 661.87692261 C-279.9967449 652.90352766 -280.09346267 643.9878092 -280 635 C-281.22025879 634.93530518 -282.44051758 634.87061035 -283.69775391 634.80395508 C-339.86099659 631.79326598 -395.80812433 627.1050369 -451.69189453 620.81689453 C-457.36414763 620.17898552 -463.03875792 619.5681846 -468.71528625 618.96969604 C-472.43469129 618.57204124 -476.1511565 618.151466 -479.86697388 617.72167969 C-481.51446646 617.53500542 -483.16298722 617.35715334 -484.81246948 617.18896484 C-487.01164682 616.96266663 -489.20420815 616.70315193 -491.3984375 616.43359375 C-493.18773682 616.23334595 -493.18773682 616.23334595 -495.01318359 616.02905273 C-499.07466157 614.6297451 -500.01022916 612.73566144 -502 609 C-502.82623305 607.21695667 -503.59323625 605.4051959 -504.296875 603.5703125 C-504.69447021 602.53922363 -505.09206543 601.50813477 -505.50170898 600.44580078 C-505.91364502 599.34993652 -506.32558105 598.25407227 -506.75 597.125 C-507.18320557 595.98401855 -507.61641113 594.84303711 -508.06274414 593.66748047 C-510.99518597 585.86734646 -513.78461218 578.02445847 -516.4375 570.125 C-516.75493164 569.18285645 -517.07236328 568.24071289 -517.39941406 567.27001953 C-519.59902781 560.58730473 -521.35882073 553.83920063 -523 547 C-515.33756869 547.57699942 -507.74282363 548.35839096 -500.1328125 549.41796875 C-498.03805169 549.70298334 -495.94324145 549.98763482 -493.84838867 550.27197266 C-492.20898819 550.4956955 -492.20898819 550.4956955 -490.53646851 550.72393799 C-430.03297074 558.94536026 -369.31373892 564.76784233 -308.38964844 568.74462891 C-307.20836868 568.82232513 -306.02708893 568.90002136 -304.81001282 568.98007202 C-302.6090001 569.12414189 -300.40782589 569.26577471 -298.20646667 569.40444946 C-293.09057822 569.73823292 -288.06204652 570.18241098 -283 571 C-283.15857042 570.16228058 -283.31714085 569.32456116 -283.48051643 568.4614563 C-284.02753731 564.81651162 -284.20898 561.30083345 -284.31173706 557.61669922 C-284.33220069 556.90499195 -284.35266432 556.19328468 -284.37374806 555.46001053 C-284.43901823 553.1166745 -284.49717682 550.77323792 -284.55419922 548.4296875 C-284.57516151 547.61406216 -284.59612381 546.79843681 -284.61772132 545.95809555 C-285.06237463 528.49253202 -285.14868923 511.03244834 -285.1343255 493.56209564 C-285.13170983 489.34885102 -285.13416402 485.13560804 -285.13571167 480.92236328 C-285.13750752 473.86034748 -285.1351964 466.7983423 -285.13037109 459.73632812 C-285.12493358 451.68776409 -285.1266981 443.63922543 -285.1321975 435.590662 C-285.13680381 428.55499881 -285.13734324 421.51934304 -285.13475883 414.48367882 C-285.13323652 410.33646609 -285.13288558 406.18926509 -285.13629532 402.04205322 C-285.14866521 384.54524958 -285.00374864 367.06190567 -284.55419922 349.5703125 C-284.5347872 348.7725024 -284.51537518 347.97469231 -284.49537492 347.15270615 C-284.43910983 344.89607039 -284.37661513 342.63970358 -284.31173706 340.38330078 C-284.27592466 339.09932404 -284.24011227 337.81534729 -284.20321465 336.49246216 C-284.01499555 333.25771461 -283.60211447 330.1809399 -283 327 C-283.53493576 327.15515579 -284.06987152 327.31031158 -284.62101746 327.47016907 C-287.44884298 328.09996328 -290.17132272 328.29385286 -293.0637207 328.47729492 C-294.92420044 328.5986657 -294.92420044 328.5986657 -296.82226562 328.7224884 C-297.48806641 328.76429544 -298.15386719 328.80610249 -298.83984375 328.84917641 C-301.71508694 329.03014895 -304.58970896 329.22023086 -307.46440697 329.4096365 C-309.00564213 329.51110257 -310.54690386 329.6121658 -312.08819008 329.71285343 C-378.43476389 334.04798846 -444.6966853 340.27163492 -510.45629883 350.22265625 C-511.26269302 350.34322891 -512.06908722 350.46380157 -512.8999176 350.58802795 C-514.3703825 350.80865176 -515.84022198 351.03351361 -517.30918884 351.26390076 C-521.57434388 351.90337279 -525.69011395 352.09534837 -530 352 C-529.35285043 344.72908426 -527.97637068 337.79029945 -526.3125 330.6875 C-526.04775879 329.55046631 -525.78301758 328.41343262 -525.51025391 327.24194336 C-516.57267922 289.57267922 -516.57267922 289.57267922 -512 285 C-510.44345588 284.70713487 -508.87578318 284.47316489 -507.3059082 284.26318359 C-506.2878006 284.12542007 -505.26969299 283.98765656 -504.22073364 283.84571838 C-502.52785721 283.62431435 -502.52785721 283.62431435 -500.80078125 283.3984375 C-499.61757294 283.24128769 -498.43436462 283.08413788 -497.21530151 282.92222595 C-493.24858927 282.39938664 -489.28080892 281.88554169 -485.3125 281.375 C-484.28552191 281.2424412 -484.28552191 281.2424412 -483.23779678 281.10720444 C-415.80967802 272.41234101 -347.90864518 266.2902467 -280 263 C-280.010242 262.01508072 -280.02048401 261.03016144 -280.03103638 260.01539612 C-280.0977289 250.75185351 -279.78575068 241.58377738 -279.1171875 232.33984375 C-279.02143624 230.96680847 -278.92600748 229.59375066 -278.83087158 228.22067261 C-278.57467852 224.55457181 -278.30996889 220.8891403 -278.04203033 217.22388077 C-277.87305239 214.91084024 -277.70568422 212.59768714 -277.53851318 210.28451538 C-274.01101704 161.63610959 -269.31945035 113.11000878 -263.20533752 64.71470642 C-262.44203512 58.65555039 -261.72400887 52.59543553 -261.07737732 46.52272034 C-260.7259606 43.27903108 -260.33949441 40.04029432 -259.94241333 36.8019104 C-259.77568258 35.37806213 -259.62437796 33.95230109 -259.490448 32.5249939 C-258.53156754 22.41275737 -258.53156754 22.41275737 -255.06762695 19.2175293 C-252.42239543 17.80050794 -249.86677948 16.8854441 -247 16 C-245.98719971 15.63487305 -244.97439941 15.26974609 -243.9309082 14.89355469 C-240.57828216 13.70839313 -237.20598719 12.62474556 -233.8125 11.5625 C-231.98875854 10.98544312 -231.98875854 10.98544312 -230.12817383 10.39672852 C-222.19098571 7.91690695 -214.22254566 5.57934535 -206.1875 3.4375 C-205.25848877 3.18621338 -204.32947754 2.93492676 -203.37231445 2.67602539 C-202.50050537 2.45164795 -201.62869629 2.22727051 -200.73046875 1.99609375 C-199.98176514 1.80200928 -199.23306152 1.6079248 -198.46166992 1.40795898 C-195.28837103 0.88206565 -192.21005591 0.9376332 -189 1 C-189.1451001 1.95922363 -189.2902002 2.91844727 -189.43969727 3.90673828 C-201.71600332 85.34011617 -211.01283123 167.30972655 -215.45629883 249.5690918 C-215.51712646 250.67551025 -215.5779541 251.78192871 -215.640625 252.921875 C-215.68735352 253.84581055 -215.73408203 254.76974609 -215.78222656 255.72167969 C-216 258 -216 258 -217 261 C-216.01 260.67 -215.02 260.34 -214 260 C-211.83561339 259.85415488 -209.66725449 259.76519467 -207.4987793 259.70556641 C-206.83931368 259.68646587 -206.17984806 259.66736534 -205.50039864 259.647686 C-203.29594401 259.5855952 -201.0913807 259.53076052 -198.88671875 259.4765625 C-197.31279831 259.43509566 -195.73887968 259.39355974 -194.16496277 259.35195923 C-175.38343962 258.86941269 -156.59868437 258.5949627 -137.8125 258.375 C-136.87927036 258.36380379 -135.94604073 258.35260757 -134.9845314 258.34107208 C-105.87983444 257.99445152 -76.79164795 257.98304601 -47.6875 258.375 C-46.87506962 258.38571281 -46.06263924 258.39642563 -45.22558975 258.40746307 C-28.0640018 258.63557346 -10.90466319 258.96327894 6.25255394 259.41505814 C7.80775634 259.45571058 9.36299508 259.49499818 10.9182682 259.53284836 C13.05919452 259.58573637 15.19986335 259.64471355 17.34057617 259.70556641 C18.55766769 259.73824615 19.77475922 259.7709259 21.0287323 259.80459595 C24 260 24 260 27 261 C26.92679535 260.10605278 26.92679535 260.10605278 26.85211182 259.19404602 C25.81972091 246.54336612 24.83517188 233.89032509 23.921875 221.23046875 C18.98292313 153.08672011 12.45816462 84.99478148 1.7265625 17.49121094 C1.60841187 16.74092621 1.49026123 15.99064148 1.36853027 15.21762085 C1.0582852 13.25680572 0.741374 11.29704838 0.42382812 9.33740234 C0.02297656 6.18092714 -0.08008527 3.17732244 0 0 Z M-220 324 C-221.56900694 363.59850634 -222.17465841 403.20623139 -222.13037109 442.83398438 C-222.1246746 447.97181169 -222.12807286 453.10958712 -222.13381481 458.24741268 C-222.17019909 496.84654166 -221.5282615 535.42982465 -220 574 C-207.42977252 574.66752623 -194.86561984 575.24413956 -182.28125 575.5546875 C-181.44296158 575.57562344 -180.60467316 575.59655937 -179.74098206 575.61812973 C-153.46976709 576.24995582 -127.18789272 576.15075894 -100.91081047 576.12856936 C-95.92572225 576.12479683 -90.9406539 576.12616146 -85.95556641 576.13037109 C-46.30275246 576.18242543 -46.30275246 576.18242543 -6.65625 575.5546875 C-5.86521378 575.53527225 -5.07417755 575.51585701 -4.25917053 575.49585342 C7.17220312 575.20427861 18.58343727 574.64339621 30 574 C30.73794902 563.85746776 31.28194572 553.72958061 31.5546875 543.5625 C31.57562344 542.79234558 31.59655937 542.02219116 31.61812973 541.22869873 C32.3525556 512.92205373 32.14964324 484.59051703 32.12856936 456.2765379 C32.12479646 450.61859734 32.12615993 444.96067429 32.13037109 439.30273438 C32.23713375 396.86608309 32.23713375 396.86608309 31.5546875 354.4375 C31.53527225 353.71375183 31.51585701 352.99000366 31.49585342 352.24432373 C31.23055341 342.80999056 30.68476738 333.41159216 30 324 C-9.01661927 322.06563175 -48.06974096 321.8327657 -87.1262207 321.86962891 C-93.21368487 321.87532231 -99.30110525 321.87193624 -105.38856792 321.86618519 C-143.6024949 321.83567205 -181.82598372 322.08926649 -220 324 Z " fill="#1D8F42" transform="translate(870,326)"/>
<path d="M0 0 C5.62668034 0.6350655 11.0882389 1.57927451 16.625 2.75 C25.59186503 4.59244713 34.5973902 6.17628971 43.625 7.6875 C44.8929541 7.90180664 46.1609082 8.11611328 47.46728516 8.33691406 C54.29865284 9.46840727 61.09730273 10.43596247 68 11 C70.30139164 16.10272049 72.05571066 21.17945244 73.6015625 26.5546875 C74.09160929 28.2260956 74.58202055 29.89739687 75.07275391 31.56860352 C75.45237274 32.86835617 75.45237274 32.86835617 75.83966064 34.19436646 C93.26660287 99.71493802 93.26660287 99.71493802 133.6484375 151.81640625 C135.98077924 153.19146978 135.98077924 153.19146978 138.8125 153.125 C143.5292057 151.46028034 146.4937882 148.49246195 150 145 C150.83144531 144.20335937 150.83144531 144.20335937 151.6796875 143.390625 C181.47818804 112.30893544 193.9952938 59.8066462 204.88183594 19.55175781 C205.14770508 18.57174805 205.41357422 17.59173828 205.6875 16.58203125 C206.03361328 15.28616089 206.03361328 15.28616089 206.38671875 13.96411133 C207 12 207 12 208 11 C209.77669778 10.70008491 211.56312669 10.45760161 213.3515625 10.23828125 C214.49858643 10.09173096 215.64561035 9.94518066 216.82739258 9.79418945 C218.08060303 9.63523193 219.33381348 9.47627441 220.625 9.3125 C233.10053021 7.67347641 245.41133943 5.51370217 257.74267578 3.01879883 C263.82209161 1.79244631 269.82962154 0.64258646 276 0 C267.17938254 43.30121297 254.24904061 86.72387075 236 127 C235.52578613 128.05171387 235.05157227 129.10342773 234.56298828 130.18701172 C229.08105814 142.2390454 223.21211643 153.88944225 216 165 C215.29488281 166.09183594 214.58976563 167.18367188 213.86328125 168.30859375 C198.84163241 190.77364489 179.22982417 210.71619442 152 217 C132.27424208 220.3433488 113.25790845 216.16470943 96.69140625 204.98046875 C88.66298087 199.07275951 81.15192829 192.89518518 75 185 C74.56187988 184.44038574 74.12375977 183.88077148 73.67236328 183.30419922 C35.61769523 134.434126 18.4086496 72.71758584 3.1875 13.65625 C2.98065079 12.85546021 2.77380157 12.05467041 2.5606842 11.22961426 C1.60632102 7.50121034 0.70213234 3.78622977 0 0 Z " fill="#1D8F42" transform="translate(637,1332)"/>
<path d="M0 0 C0.23589949 6.09968678 -0.69406987 11.75282107 -1.75 17.75 C-3.10354706 25.59673648 -4.19033699 33.39668772 -4.9453125 41.3203125 C-5.02354248 42.11171631 -5.10177246 42.90312012 -5.18237305 43.71850586 C-5.6525766 48.47695882 -5.6525766 48.47695882 -6.0657959 53.24060059 C-6.24611811 55.47327892 -6.45998205 57.70059194 -6.6796875 59.9296875 C-6.79038574 61.22116699 -6.90108398 62.51264648 -7.01513672 63.84326172 C-8 67 -8 67 -10.70214844 68.8203125 C-13.81859574 69.93510917 -16.91119332 71.00882004 -20.0859375 71.9453125 C-21.25213623 72.29537354 -22.41833496 72.64543457 -23.61987305 73.00610352 C-24.85906494 73.37533936 -26.09825684 73.7445752 -27.375 74.125 C-47.1078255 80.10876278 -66.34247221 87.1977891 -85 96 C-85.69029297 96.32323242 -86.38058594 96.64646484 -87.09179688 96.97949219 C-103.60302735 104.77000234 -123.76643867 114.53287734 -132.25 131.5 C-131.57842289 138.2157711 -124.64932025 143.71854551 -119.79296875 147.8671875 C-109.07701283 156.05028112 -97.15924532 162.2732622 -85 168 C-83.91138672 168.52327881 -83.91138672 168.52327881 -82.80078125 169.05712891 C-57.87710556 180.9988298 -31.37681936 188.96710652 -5 197 C-4.89612976 197.56581787 -4.79225952 198.13163574 -4.6852417 198.71459961 C-3.58777725 204.68717489 -2.48309874 210.65838571 -1.37451172 216.62890625 C-0.96353876 218.84732479 -0.55431133 221.06606752 -0.14697266 223.28515625 C1.98496994 234.89298128 4.150428 246.41057918 7.29199219 257.79296875 C7.99372184 260.97156209 8.13410028 263.75698779 8 267 C-32.94372015 257.0264315 -73.85528773 245.1903705 -112 227 C-112.68304199 226.67435059 -113.36608398 226.34870117 -114.06982422 226.01318359 C-132.39405119 217.20122826 -149.30068216 206.99446202 -165 194 C-165.61230469 193.52304687 -166.22460938 193.04609375 -166.85546875 192.5546875 C-182.7658305 179.81183484 -194.23975398 159.52218729 -196.78125 139.41015625 C-198.20969395 117.14173538 -190.58493802 97.69793331 -176 81 C-167.59634225 71.64745923 -158.59241243 63.76061888 -148 57 C-147.27071289 56.53384277 -146.54142578 56.06768555 -145.79003906 55.58740234 C-108.16075856 31.80463134 -45.51927453 0 0 0 Z " fill="#1D8F42" transform="translate(197,643)"/>
<path d="M0 0 C44.16723723 11.24658245 87.39441149 25.02311184 128 46 C128.96164062 46.48984375 129.92328125 46.9796875 130.9140625 47.484375 C142.719294 53.68299213 153.87898945 61.32955774 164 70 C164.91523437 70.78117188 165.83046875 71.56234375 166.7734375 72.3671875 C182.66903186 86.34660062 194.64424993 104.58190494 197 126 C198.1792961 149.585922 190.30982531 168.35185519 174.87890625 185.8671875 C162.72977636 199.28636088 147.65748476 209.15927698 132 218 C131.30874023 218.39155273 130.61748047 218.78310547 129.90527344 219.18652344 C87.6429496 242.86487282 39.69441587 256.0733807 -7 268 C-8.14160802 264.57517593 -7.82310311 263.43804475 -6.9609375 260.00390625 C-6.5882373 258.4737085 -6.5882373 258.4737085 -6.20800781 256.91259766 C-5.93311523 255.80706543 -5.65822266 254.7015332 -5.375 253.5625 C-2.49378131 241.56980721 -0.17671176 229.53436463 1.921875 217.3828125 C2.11330078 216.32610352 2.30472656 215.26939453 2.50195312 214.18066406 C3.04925051 210.9832079 3.04925051 210.9832079 3.23242188 207.65527344 C3.50801184 204.51639874 3.83577701 201.92974797 5 199 C8.02450381 196.59582649 11.28890855 195.89749307 15 195 C17.13758772 194.33769604 19.27290774 193.66804148 21.40625 192.9921875 C23.77052373 192.28542181 26.13512161 191.5797398 28.5 190.875 C86.60562565 173.71740946 86.60562565 173.71740946 132 136 C132.1150033 130.13483174 130.05596385 127.14092626 126.171875 123.0859375 C125.45515625 122.39757812 124.7384375 121.70921875 124 121 C123.28328125 120.31164062 122.5665625 119.62328125 121.828125 118.9140625 C91.35845987 92.03477192 46.97050831 80.92137916 9 69 C8.86948242 67.83766846 8.73896484 66.67533691 8.60449219 65.4777832 C5.79288215 38.53336403 5.79288215 38.53336403 1.16894531 11.86450195 C0.28758601 7.80905816 -0.0653857 4.14231198 0 0 Z " fill="#1D8F42" transform="translate(1353,642)"/>
<path d="M0 0 C21.79696619 -0.86754094 40.55969856 8.97167389 56.60546875 23.03125 C61.899953 28.00299356 66.45466617 33.38883959 70.85546875 39.15625 C71.52191406 40.01863281 72.18835938 40.88101563 72.875 41.76953125 C78.46395006 49.21044109 83.27154905 57.07177905 87.85546875 65.15625 C88.24992188 65.85186035 88.644375 66.5474707 89.05078125 67.26416016 C106.4975919 98.40812416 131.85546875 147.87594866 131.85546875 184.15625 C120.58979211 182.77258521 109.48468749 180.88000124 98.33764648 178.76074219 C89.36403481 177.06112263 80.44310377 175.6548325 71.35913086 174.68359375 C67.87902398 174.15979535 65.02913705 173.69105916 61.85546875 172.15625 C60.44677734 169.63549805 60.44677734 169.63549805 59.50390625 166.41796875 C59.13402588 165.21970459 58.76414551 164.02144043 58.38305664 162.78686523 C58.19599152 162.14514374 58.00892639 161.50342224 57.81619263 160.84225464 C56.81108905 157.41281589 55.71587808 154.01231579 54.625 150.609375 C54.4012822 149.90695175 54.17756439 149.2045285 53.94706726 148.4808197 C44.83620451 120.20943467 31.46701623 84.52486836 6.85546875 66.15625 C4.10576919 64.72490227 4.10576919 64.72490227 0.85546875 65.15625 C-24.38918066 78.85230743 -36.86234524 118.23051599 -46.20703125 143.53125 C-46.47866089 144.26637817 -46.75029053 145.00150635 -47.03015137 145.75891113 C-50.35650911 154.81120766 -53.41599656 163.90382785 -56.14453125 173.15625 C-56.76457031 173.25123779 -57.38460937 173.34622559 -58.0234375 173.4440918 C-63.43533526 174.27369949 -68.84678291 175.10615394 -74.2578125 175.94140625 C-79.02861448 176.67774943 -83.80014642 177.40881961 -88.57272339 178.13356018 C-91.4542635 178.57200098 -94.33521183 179.01425069 -97.21606445 179.45718384 C-98.61751265 179.6718195 -100.019204 179.884874 -101.42114258 180.09628296 C-103.40640202 180.39591403 -105.3907194 180.70176622 -107.375 181.0078125 C-108.51348389 181.18135254 -109.65196777 181.35489258 -110.82495117 181.53369141 C-114.3438152 182.19362398 -117.7054064 183.16893404 -121.14453125 184.15625 C-124.08203125 184.28125 -124.08203125 184.28125 -126.14453125 184.15625 C-112.9208311 125.43562346 -89.09412968 46.67300789 -36.1953125 12.01953125 C-24.91221834 5.12832009 -13.21410217 0.96277611 0 0 Z " fill="#1D8F42" transform="translate(772.14453125,-0.15625)"/>
</svg>
